<?xml version="1.0" encoding="UTF-8" standalone="no"?>
<svg
   width="300"
   height="300"
   version="1.1"
   id="svg6"
   sodipodi:docname="2048_logo.svg"
   inkscape:version="1.2.1 (9c6d41e, 2022-07-14)"
   xmlns:inkscape="http://www.inkscape.org/namespaces/inkscape"
   xmlns:sodipodi="http://sodipodi.sourceforge.net/DTD/sodipodi-0.dtd"
   xmlns="http://www.w3.org/2000/svg"
   xmlns:svg="http://www.w3.org/2000/svg">
  <defs
     id="defs10" />
  <sodipodi:namedview
     id="namedview8"
     pagecolor="#ffffff"
     bordercolor="#000000"
     borderopacity="0.25"
     inkscape:showpageshadow="2"
     inkscape:pageopacity="0.0"
     inkscape:pagecheckerboard="0"
     inkscape:deskcolor="#d1d1d1"
     showgrid="false"
     inkscape:zoom="0.78666667"
     inkscape:cx="109.95763"
     inkscape:cy="150.63559"
     inkscape:window-width="1440"
     inkscape:window-height="783"
     inkscape:window-x="0"
     inkscape:window-y="25"
     inkscape:window-maximized="0"
     inkscape:current-layer="svg6" />
  <rect
     width="139.83051"
     height="139.83051"
     fill="#edc53f"
     opacity="0.93"
     ry="21.819151"
     id="rect2"
     x="80.084747"
     y="80.084747"
     style="stroke-width:0.466102;opacity:0.73584906" />
  <path
     fill="#ffffff"
     fill-opacity="0.94118"
     d="m 122.02621,164.01979 h -20.33369 v -4.62815 c 3.64669,-3.64598 14.20398,-11.84318 13.12076,-16.5606 -1.43191,-4.51596 -7.69813,-1.44682 -8.62148,0.61429 l -4.47738,-3.42119 c 4.61679,-7.12064 18.8995,-6.3003 19.305,2.87156 0.0626,7.24927 -7.1444,11.69448 -11.34677,15.6927 v 0.2775 h 12.35356 z m 25.72694,-14.02033 c 0.0294,8.35907 -2.38392,14.67521 -10.73292,14.72881 -8.89462,-0.0166 -10.98135,-6.40564 -10.95106,-14.67661 -0.0302,-8.28729 2.22857,-14.71949 10.95106,-14.73533 8.42059,0.0156 10.70357,6.45737 10.73292,14.68313 z m -15.72347,0.0524 c 0.0538,3.27512 0.31508,9.60822 4.88614,9.65343 4.52366,0.052 4.90013,-6.70534 4.91178,-9.70563 -0.0591,-3.25851 -0.22735,-9.55601 -4.85958,-9.58772 -4.70669,-0.0858 -4.90711,6.50818 -4.93834,9.63992 z m 55.81754,-14.73925 c 3.97328,0.0211 9.53178,1.73646 9.53598,6.8997 -0.004,4.08213 -1.70118,5.00081 -4.95933,6.78085 3.58665,2.16519 5.84212,3.78065 5.88361,8.03606 -0.0416,5.57272 -5.43102,7.58394 -10.46072,7.62123 -5.29632,-0.0372 -10.51992,-1.92714 -10.60102,-7.7014 0.0834,-4.16583 2.52608,-6.52589 5.17513,-7.85894 -3.02543,-1.85536 -4.44349,-2.81358 -4.36882,-6.91695 -0.0747,-5.08377 5.50792,-6.8391 9.79466,-6.86055 z m -4.90991,21.13631 c -0.0202,2.64928 2.18895,3.60931 4.85212,3.58685 2.56584,0.0224 4.50809,-1.04654 4.53978,-3.34074 0.0223,-3.85313 -4.53723,-5.53683 -4.53723,-5.53683 0,0 -4.87495,1.68385 -4.85491,5.29072 z m 4.86656,-16.30516 c -2.23631,-0.0191 -4.26539,0.48464 -4.27597,2.64605 0.0106,2.51672 4.23099,4.24339 4.23099,4.24339 0,0 3.88314,-1.70331 3.94295,-4.42083 -0.0894,-1.98214 -1.7752,-2.48768 -3.89797,-2.46861 z m -13.70198,19.15444 h -3.62162 v 4.70203 h -5.36483 v -4.69829 h -14.01101 v -5.19098 l 13.67169,-18.10944 h 5.70415 v 18.53966 h 3.62162 z m -8.98645,-15.71834 -8.40754,10.96132 h 8.40754 z"
     id="path4"
     style="stroke-width:0.466102;opacity:0.73584906" />
</svg>
